# xmcd
#
# Track frame offsets: 
#        150
#        13568
#        27033
#        40028
#        53354
#        67313
#        81073
#        95437
#        109341
#        121822
#        134293
#        147544
#        160671
#        172891
#        184045
#        194451
#        207516
#        218951
#        231191
#        241709
#        253051
#        263290
#        277025
#        288271
#        299223
#        311076
#        321904
#
# Disc length: 4450 seconds
#
# Revision: 0
# Processed by: cddbd v1.5.2PL0 Copyright (c) Steve Scherf et al.
# Submitted via: ExactAudioCopy v1.0b3
#
DISCID=8e11601b
DTITLE=T-Bone Walker - The Ultimate Collection 1929-57 - Disc 3
DYEAR=2014
DGENRE=Blues
TTITLE0=Wise Man Blues
TTITLE1=Misfortune Blues
TTITLE2=I Wish You Were Mine
TTITLE3=I'm Gonna Move You Out and Get Somebody Else
TTITLE4=Plain Old Down Home Blues
TTITLE5=Go Back to the One You Love
TTITLE6=Born To Be No Good
TTITLE7=She's the no-Sleepinest woman
TTITLE8=I Want a Little Girl
TTITLE9=West Side Baby
TTITLE10=I'm Still In Love With You
TTITLE11=You're My Best Poker Hand
TTITLE12=Glamour Girl
TTITLE13=Strollin' With Bones
TTITLE14=Sun Went Down
TTITLE15=You Don't Love Me
TTITLE16=Hustle Is On
TTITLE17=Baby Broke My Heart
TTITLE18=Travelin' Blues
TTITLE19=Evil Hearted Woman
TTITLE20=I Walked Away
TTITLE21=Too Lazy
TTITLE22=No Reason
TTITLE23=Look Me in the Eye
TTITLE24=You Don't Understand
TTITLE25=Welcome Baby
TTITLE26=Alimony Blues
EXTD=
EXTT0=
EXTT1=
EXTT2=
EXTT3=
EXTT4=
EXTT5=
EXTT6=
EXTT7=
EXTT8=
EXTT9=
EXTT10=
EXTT11=
EXTT12=
EXTT13=
EXTT14=
EXTT15=
EXTT16=
EXTT17=
EXTT18=
EXTT19=
EXTT20=
EXTT21=
EXTT22=
EXTT23=
EXTT24=
EXTT25=
EXTT26=
PLAYORDER=
